<?xml version="1.0" standalone="no"?><!DOCTYPE svg PUBLIC "-//W3C//DTD SVG 1.1//EN" "http://www.w3.org/Graphics/SVG/1.1/DTD/svg11.dtd"><svg t="1563261762214" class="icon" viewBox="0 0 1228 1024" version="1.1" xmlns="http://www.w3.org/2000/svg" p-id="2003" xmlns:xlink="http://www.w3.org/1999/xlink" width="239.84375" height="200"><defs><style type="text/css"></style></defs><path d="M484.693333 202.752h-37.0688c-27.784533 0-43.2128 13.380267-54.613333 43.758933L244.189867 679.253333a38.229333 38.229333 0 0 0 23.210666 48.605867 37.6832 37.6832 0 0 0 48.196267-23.552l41.437867-120.4224h218.385066l39.594667 115.643733c3.754667 137.079467 117.828267 247.261867 258.730667 247.261867 57.617067 0 110.3872-19.114667 153.463466-50.244267l112.366934 110.045867c15.018667 14.7456 39.458133 14.7456 54.4768 0a37.205333 37.205333 0 0 0 0-53.316267l-112.298667-110.114133c31.880533-42.325333 51.4048-94.0032 51.4048-150.459733 0-140.288-116.1216-254.020267-259.413333-254.020267-96.187733 0-179.131733 51.882667-223.914667 128.068267L539.306667 244.258133c-10.24-27.989333-25.668267-41.5744-54.613334-41.5744zM382.088533 511.112533l81.1008-235.9296h6.621867l80.759467 235.9296H382.088533z m639.3856 289.928534c-31.607467 18.090667-31.607467 36.113067-36.864 36.113066a186.504533 186.504533 0 0 1-110.865066 36.864c-100.352 0-181.4528-78.165333-184.661334-175.650133 0.750933-4.096 0.750933-8.192 0.136534-12.288C692.906667 589.141333 773.802667 511.317333 873.813333 511.317333c102.4 0 185.275733 81.237333 185.275734 181.4528a175.7184 175.7184 0 0 1-37.546667 108.407467z m-518.212266 72.977066H169.7792c-40.96 0-74.1376-32.494933-74.1376-72.567466V148.138667c0-40.072533 33.109333-72.4992 74.1376-72.4992h666.965333c40.891733 0 74.069333 32.426667 74.069334 72.567466V329.728c0 20.002133 16.5888 36.2496 37.0688 36.2496 20.48 0 37.0688-16.247467 37.0688-36.2496V148.2752c0-80.145067-66.423467-145.2032-148.206934-145.2032h-666.965333C87.927467 3.072 21.572267 68.130133 21.572267 148.2752v653.243733c0 80.145067 66.3552 145.134933 148.138666 145.134934h333.550934c20.48 0 37.000533-16.247467 37.000533-36.2496a36.6592 36.6592 0 0 0-37.000533-36.317867z" p-id="2004" fill="#808080"></path></svg>