<?xml version="1.0" standalone="no"?><!DOCTYPE svg PUBLIC "-//W3C//DTD SVG 1.1//EN" "http://www.w3.org/Graphics/SVG/1.1/DTD/svg11.dtd"><svg t="1563262251636" class="icon" viewBox="0 0 1024 1024" version="1.1" xmlns="http://www.w3.org/2000/svg" p-id="4913" xmlns:xlink="http://www.w3.org/1999/xlink" width="200" height="200"><defs><style type="text/css"></style></defs><path d="M689.847 385.375l134.785-134.788-49.223-49.223L640.623 336.15l49.224 49.225z m206.644-155.54c0 8.281-2.76 15.181-8.28 20.701l-638.8 635.473c-5.521 5.52-12.421 8.28-20.701 8.28-8.28 0-15.18-2.76-20.702-8.28l-70.618-71.513c-5.52-5.52-8.28-12.42-8.28-20.7s2.76-15.18 8.28-20.701l638.801-635.473c5.52-5.52 12.42-8.28 20.7-8.28s15.181 2.76 20.701 8.28l70.62 71.513c5.52 5.52 8.279 12.42 8.279 20.7z m-633.91-55.411l45.082 13.8-45.082 13.802-13.8 45.082-13.802-45.082-45.083-13.801 45.083-13.801 13.801-45.082 13.801 45.082z m161.006 74.522l90.165 27.601-90.165 27.602-27.6 90.165-27.602-90.165-90.164-27.602 90.164-27.601 27.602-90.165 27.6 90.165zM851.408 498.2L896.49 512l-45.082 13.801-13.801 45.082-13.803-45.082L778.723 512l45.081-13.801 13.803-45.082 13.801 45.083zM556.996 174.424l45.082 13.8-45.082 13.802-13.802 45.082-13.8-45.082-45.083-13.801 45.082-13.801 13.801-45.082 13.802 45.082z" fill="#808080" p-id="4914"></path></svg>